<!-- Generated by IcoMoon.io -->
<svg version="1.1" xmlns="http://www.w3.org/2000/svg" width="95" height="32" viewBox="0 0 95 32">
<title>magiccoder-white</title>
<path fill="#fff" d="M88.523 20.026h-3.898c0.123-0.797 0.621-1.378 1.367-1.574 0.308-0.090 0.683-0.105 1.009-0.040l0.117 0.030c0.747 0.192 1.272 0.79 1.405 1.584zM87.463 17.347l-0.036-0.006c-0.61-0.158-1.244-0.155-1.787 0.007-0.97 0.271-1.713 0.983-2.038 1.954-0.36 1.071-0.164 2.289 0.516 3.182 0.541 0.68 1.462 1.086 2.46 1.086 0.021 0 0.043 0 0.064 0 0.846 0 1.589-0.26 2.104-0.741 0.297-0.304 0.24-0.641 0.061-0.825-0.199-0.205-0.576-0.26-0.852-0.007-0.475 0.365-1.028 0.442-1.409 0.442-0.903 0-1.641-0.545-1.865-1.349h4.288c0.26 0 0.458-0.073 0.589-0.217 0.116-0.127 0.17-0.306 0.153-0.504-0.031-1.514-0.871-2.643-2.249-3.021z"></path>
<path fill="#fff" d="M93.473 17.295c-0.651 0-1.16 0.19-1.521 0.566-0.005-0.215-0.101-0.345-0.183-0.418-0.307-0.272-0.993-0.131-0.993 0.435v5.063c0 0.338 0.255 0.582 0.606 0.582 0.333 0 0.594-0.256 0.594-0.582v-2.583c0-0.574 0.146-1.909 1.498-1.909 0.374 0 0.617-0.224 0.617-0.571 0-0.354-0.242-0.583-0.617-0.583z"></path>
<path fill="#fff" d="M33.84 16.474c-1.043 0-1.933 0.475-2.412 1.262-0.429-0.788-1.288-1.262-2.331-1.262-0.809 0-1.489 0.282-1.966 0.805v-0.222c0-0.338-0.245-0.583-0.583-0.583-0.327 0-0.594 0.261-0.594 0.583v5.109c0 0.372 0.311 0.572 0.603 0.572 0.296 0 0.596-0.196 0.596-0.572v-2.572c0-1.224 0.994-1.955 1.955-1.955 0.334 0 0.633 0.080 0.886 0.235 0.441 0.278 0.703 0.822 0.703 1.457v2.834c0 0.348 0.243 0.582 0.606 0.582s0.606-0.234 0.606-0.582v-2.515c0-1.172 0.827-2.023 1.966-2.023 0.885 0 1.568 0.649 1.589 1.512v3.026c0 0.354 0.233 0.582 0.594 0.582 0.362 0 0.606-0.234 0.606-0.582v-3.063c0-1.707-1.454-2.628-2.823-2.628z"></path>
<path fill="#fff" d="M52.073 17.056v5.143c0 0.316 0.259 0.555 0.603 0.555 0.296 0 0.596-0.191 0.596-0.555v-5.154c0-0.716-1.199-0.712-1.199 0.011z"></path>
<path fill="#fff" d="M53.272 15.389c0 0.331-0.268 0.6-0.6 0.6s-0.599-0.269-0.599-0.6 0.268-0.6 0.599-0.6c0.331 0 0.6 0.269 0.6 0.6z"></path>
<path fill="#fff" d="M58.307 23.637c-2.466 0-4.471-2.006-4.471-4.471s2.006-4.472 4.471-4.472c1.194 0 2.317 0.465 3.162 1.31 0.25 0.249 0.25 0.654 0 0.903s-0.654 0.249-0.903 0c-0.603-0.604-1.405-0.936-2.258-0.936-1.761 0-3.194 1.433-3.194 3.194s1.433 3.194 3.194 3.194c0.853 0 1.655-0.332 2.258-0.935 0.25-0.25 0.655-0.25 0.903 0 0.25 0.249 0.25 0.654 0 0.903-0.845 0.845-1.968 1.31-3.162 1.31z"></path>
<path fill="#fff" d="M65.751 23.637c-2.466 0-4.471-2.006-4.471-4.471s2.006-4.472 4.471-4.472c1.194 0 2.318 0.465 3.162 1.31 0.25 0.249 0.25 0.654 0 0.903s-0.654 0.249-0.903 0c-0.603-0.604-1.405-0.936-2.258-0.936-1.761 0-3.194 1.433-3.194 3.194s1.433 3.194 3.194 3.194c0.853 0 1.655-0.332 2.258-0.935 0.25-0.25 0.654-0.25 0.903 0s0.25 0.654 0 0.903c-0.844 0.845-1.967 1.31-3.162 1.31z"></path>
<path fill="#fff" d="M72.539 18.497c-1.075 0-1.946 0.871-1.946 1.946s0.871 1.946 1.946 1.946c1.075 0 1.946-0.872 1.946-1.946s-0.872-1.946-1.946-1.946zM75.749 20.443c0 1.773-1.437 3.21-3.21 3.21s-3.21-1.437-3.21-3.21c0-1.773 1.437-3.21 3.21-3.21s3.21 1.437 3.21 3.21z"></path>
<path fill="#fff" d="M79.436 22.255c-1.033 0-1.871-0.838-1.871-1.871s0.838-1.871 1.871-1.871c1.033 0 1.871 0.838 1.871 1.871s-0.838 1.871-1.871 1.871zM82.522 16.055c0-0.297-0.243-0.541-0.54-0.541h-0.144c-0.297 0-0.541 0.243-0.541 0.541v1.871c-0.518-0.393-1.161-0.629-1.861-0.629-1.704 0-3.086 1.382-3.086 3.086s1.382 3.086 3.086 3.086c1.704 0 3.086-1.382 3.086-3.086 0-0.047-0.005-0.093-0.007-0.14 0.003-0.023 0.007-0.046 0.007-0.069z"></path>
<path fill="#fff" d="M10.676 18.854l-3.027 10.661 22.814-17.491-19.68 12.198z"></path>
<path fill="#fff" d="M17.608 23.016l1.448-1.075 4.654 3.498-1.9-5.631 1.367-1.061 3.422 10.768z"></path>
<path fill="#fff" d="M16.707 1.105l-3.308 10.129h-10.494l8.738 6.502v3.080l0.068-0.183 1.301-3.536-5.932-4.517h7.232l2.395-6.844 2.35 6.844h8.487l2.167-1.346h-9.627z"></path>
<path fill="#fff" d="M40.769 21.481c-1.033 0-1.871-0.838-1.871-1.871s0.838-1.871 1.871-1.871c1.015 0 1.837 0.809 1.866 1.817-0.001 0.016-0.005 0.031-0.005 0.047v0.108c-0.054 0.985-0.863 1.77-1.861 1.77zM43.854 19.596c-0.007-1.698-1.385-3.073-3.086-3.073-1.704 0-3.086 1.382-3.086 3.086s1.382 3.086 3.086 3.086c0.7 0 1.343-0.235 1.861-0.629v0.207c0 0.297 0.243 0.54 0.54 0.54h0.144c0.297 0 0.541-0.243 0.541-0.54v-2.67c0-0.002-0.001-0.004-0.001-0.006z"></path>
<path fill="#fff" d="M49.532 19.831v0.108c-0.054 0.985-0.863 1.77-1.861 1.77-1.033 0-1.871-0.838-1.871-1.871s0.838-1.871 1.871-1.871c1.015 0 1.837 0.809 1.866 1.817-0.001 0.016-0.005 0.031-0.005 0.047zM50.757 19.824c-0.007-1.698-1.385-3.073-3.086-3.073-1.704 0-3.086 1.382-3.086 3.086s1.382 3.086 3.086 3.086c0.7 0 1.343-0.236 1.861-0.628 0 0.462-0.16 0.843-0.554 1.113-0.355 0.244-0.802 0.334-1.227 0.334-0.612 0-0.98-0.13-1.495-0.52-0.278-0.269-0.66-0.209-0.868 0.005-0.192 0.197-0.257 0.548 0.055 0.853 0.614 0.58 1.326 0.838 2.308 0.838 1.217 0 2.451-0.545 2.859-1.769 0.22-0.66 0.158-1.31 0.147-2.070-0.006-0.416 0-0.832-0-1.255z"></path>
</svg>
